<?xml version="1.0" encoding="utf-8"?>
<!-- Generator: Adobe Illustrator 18.0.0, SVG Export Plug-In . SVG Version: 6.00 Build 0)  -->
<!DOCTYPE svg PUBLIC "-//W3C//DTD SVG 1.1//EN" "http://www.w3.org/Graphics/SVG/1.1/DTD/svg11.dtd">
<svg version="1.1" id="Layer_1" xmlns="http://www.w3.org/2000/svg" xmlns:xlink="http://www.w3.org/1999/xlink" x="0px" y="0px"
	 viewBox="0 0 485.4 51.2" style="enable-background:new 0 0 485.4 51.2;" xml:space="preserve">
<style type="text/css">
	.st0{fill:#FFFFFF;}
	.st1{fill:#F4EA12;}
</style>
<g>
	<path class="st0" d="M18.9,47.5c-2.8,1.4-6.3,2-11.5,2c-2.5,0-4.1-0.1-5.2-0.4c-2-0.4-2.2-1.3-2.2-2.4v-42c0-1.2,0-2.1,2.4-2.4
		C3.6,2.1,6.8,2,8.4,2c5,0,14.3,1.4,14.3,10.6c0,9.1-9.1,10.7-9.1,10.7s12.5,0.7,12.5,12.7C26.1,41.8,23,45.5,18.9,47.5z M2.9,22.1
		h3.5c2.7,0,6.9,0,10.1-2.5c1.8-1.4,3.2-3.6,3.2-6.7c0-6.3-5.8-8.5-11.7-8.5c-2.4,0-5,0.4-5,0.4V22.1z M2.9,46.7
		c0,0,1.6,0.4,4.8,0.4c11,0,15.3-4.3,15.3-10.8c0-3.9-1.5-7.1-5.3-9.3c-3.9-2.2-8.6-2.3-11.9-2.3H2.9V46.7z"/>
	<path class="st0" d="M50.3,47.8c0,0.4,0,0.9-0.2,1.2c-0.2,0.4-0.7,0.5-1.2,0.5c-0.5,0-1-0.1-1.2-0.5c-0.2-0.3-0.2-0.7-0.2-1.2V4.9
		c0-1.5,0-2.2,2.4-2.6C51.3,2.1,53.4,2,55.4,2c3.8,0,7.6,0.5,10.7,2.2c3.7,1.9,6,5.2,6,10.2c0,6-3.2,10.7-10.5,12.7l14.8,20.5
		c0.7,1,0.6,1.9-0.9,1.9c-1.2,0-1.7-0.6-2.3-1.4L62.9,33.7c-2.2-3-4.1-6-4.1-6S56.4,28,53.3,28c-2,0-3-0.1-3-0.1V47.8z M50.3,25.4
		c0,0,1.2,0.1,3.2,0.1c10.7,0,15.5-4.2,15.5-10.8c0-7.9-6.8-10.3-13.8-10.3c-2.7,0-5,0.4-5,0.4V25.4z"/>
	<path class="st0" d="M119.2,30.3h-17.9l-6.8,17.9c-0.4,0.9-0.7,1.4-1.7,1.4c-0.9,0-1.2-0.4-1.2-0.9c0-0.2,0.1-0.6,0.3-1.1l17-44.1
		c0.3-0.8,0.8-1.4,1.7-1.4c0.9,0,1.4,0.6,1.7,1.4l16.4,44.1c0.1,0.4,0.3,0.8,0.3,1.1c0,0.5-0.4,0.9-1.4,0.9c-0.9,0-1.4-0.4-1.7-1.4
		L119.2,30.3z M102.2,27.8h16l-7.8-21.2L102.2,27.8z"/>
	<path class="st0" d="M151.3,47.8c0,0.4,0,0.9-0.2,1.2c-0.2,0.4-0.7,0.5-1.2,0.5c-0.5,0-1-0.1-1.2-0.5c-0.2-0.3-0.2-0.7-0.2-1.2V3.6
		c0-0.4,0-0.9,0.2-1.2c0.2-0.4,0.7-0.5,1.2-0.5c0.5,0,1,0.1,1.2,0.5c0.2,0.3,0.2,0.7,0.2,1.2V47.8z"/>
	<path class="st0" d="M179.1,47.8c0,0.4,0,0.9-0.2,1.2c-0.2,0.4-0.6,0.5-1.2,0.5s-0.9-0.1-1.2-0.5c-0.2-0.3-0.2-0.7-0.2-1.2V3.4
		c0-0.9,0.4-1.4,1.4-1.4c0.9,0,1.4,0.4,2.1,1.2L211,44.4V3.6c0-0.4,0-0.9,0.2-1.2c0.2-0.4,0.6-0.5,1.2-0.5c0.5,0,0.9,0.1,1.2,0.5
		c0.2,0.3,0.2,0.7,0.2,1.2v44.4c0,0.9-0.4,1.4-1.4,1.4c-0.9,0-1.4-0.4-2.1-1.2L179.1,7.1V47.8z"/>
	<path class="st0" d="M252,24.7c4.7,2.7,8.4,6.6,8.4,12.7c0,8.1-6.7,12.5-14,12.5c-3.4,0-6.7-0.9-9.4-2.7c-1.6-1-2.7-2.2-2.7-3
		c0-0.7,0.7-1.4,1.4-1.4c1.7,0,3.8,4.5,10.7,4.5c6.3,0,11.2-3.7,11.2-9.8c0-4.8-3.1-8-6.6-10.2c-5.3-3.3-15.1-6.4-15.1-15.1
		c0-6.2,5-10.8,12.7-10.8c6.1,0,10.8,2.9,10.8,4.4c0,0.5-0.4,1.3-1.2,1.3c-1.5,0-3.7-3.1-9.4-3.1c-5.8,0-10,3.3-10,8.1
		C238.7,19,247,21.8,252,24.7z"/>
	<path class="st0" d="M293.9,47.8c0,0.4,0,0.9-0.2,1.2c-0.2,0.4-0.7,0.5-1.2,0.5s-1-0.1-1.2-0.5c-0.2-0.3-0.2-0.7-0.2-1.2V5h-15.3
		c-0.4,0-0.9,0-1.2-0.2c-0.4-0.2-0.5-0.6-0.5-1c0-0.5,0.1-0.9,0.5-1.1c0.4-0.2,0.8-0.2,1.2-0.2h33.6c0.4,0,0.9,0,1.2,0.2
		c0.4,0.2,0.5,0.6,0.5,1c0,0.5-0.1,0.9-0.5,1.1C310.1,5,309.7,5,309.2,5h-15.3V47.8z"/>
	<path class="st0" d="M389.7,47.8c0,0.4,0,0.9-0.2,1.2c-0.2,0.4-0.7,0.5-1.2,0.5s-1-0.1-1.2-0.5c-0.2-0.3-0.2-0.7-0.2-1.2V4.9
		c0-1.5,0-2.2,2.4-2.6c1.4-0.2,3.6-0.4,5.6-0.4c3.8,0,7.6,0.5,10.7,2.2c3.7,1.9,6,5.2,6,10.2c0,6-3.2,10.7-10.5,12.7l14.8,20.5
		c0.7,1,0.6,1.9-0.9,1.9c-1.2,0-1.7-0.6-2.3-1.4l-10.3-14.4c-2.2-3-4.1-6-4.1-6s-2.3,0.4-5.5,0.4c-2,0-3-0.1-3-0.1V47.8z
		 M389.7,25.4c0,0,1.2,0.1,3.2,0.1c10.7,0,15.5-4.2,15.5-10.8c0-7.9-6.8-10.3-13.8-10.3c-2.7,0-5,0.4-5,0.4V25.4z"/>
	<path class="st0" d="M477.2,3.3c0.4-0.9,1-1.4,1.9-1.4c1.4,0,1.4,0.9,1.5,2.2l4.5,42.5c0.1,0.6,0.1,1.2,0.1,1.7
		c0,0.8-0.4,1.2-1.4,1.2s-1.4-0.4-1.4-1.4l-4.4-40.8L461,44.6c-0.4,0.8-0.8,1.5-1.7,1.5c-0.6,0-1.2-0.4-1.7-1.5L440.8,7.4l-4.7,40.8
		c-0.1,0.9-0.5,1.4-1.4,1.4c-0.9,0-1.4-0.5-1.4-1.3c0-0.3,0.1-0.9,0.1-1.4l5.1-42.8c0.1-1,0.2-1.9,1.6-1.9c0.8,0,1.4,0.4,1.8,1.4
		L459.4,42L477.2,3.3z"/>
</g>
<text transform="matrix(1 0 0 1 -2.9287 -85.9399)" style="display:none; font-family:'DomusTitlingExtralight'; font-size:72; letter-spacing:7;">BRAINST  RM</text>
<g>
	<path class="st0" d="M362.2,10.2C362.2,10.2,362.2,10.2,362.2,10.2C358.9,4.1,352.5,0,345.1,0c-10.8,0-19.6,8.8-19.6,19.6
		c0,7.1,1.7,10.4,8.7,18.1c0,0,0,5.6,0,8.1c0,2.6,18.1,7.1,18.1,4.7c0-2.3,0-10.4,0-10.4s9.3,1,10.2,0c1-1,0-11.6,0-11.6
		s5.3,0.8,6.1,0C369.4,27.8,363.5,11.2,362.2,10.2z M345,23.6c-8,0-14.5,0.4-14.5-6.4S337,4.8,345,4.8c8,0,14.5,5.5,14.5,12.4
		S353.1,23.6,345,23.6z"/>
	<path class="st1" d="M350,9.4c0.1-0.2,0.2-0.3,0.2-0.5c0-0.6-0.5-1.1-1.1-1.1c-0.5,0-1,0.4-1,0.9l-9.3,0.8c-0.2-0.4-0.5-0.7-1-0.7
		c-0.6,0-1.1,0.5-1.1,1.1c0,0.3,0.1,0.5,0.3,0.7l-2.8,4.8c-0.1,0-0.2,0-0.3,0c-0.6,0-1.1,0.5-1.1,1.1s0.5,1.1,1.1,1.1
		c0.4,0,0.7-0.2,0.9-0.4l4.8,1.7c0,0.1,0,0.2,0,0.3c0,0.6,0.5,1.1,1.1,1.1c0.5,0,0.9-0.3,1-0.8l6.4,0.9c0.1,0.5,0.5,0.9,1,0.9
		c0.6,0,1.1-0.5,1.1-1.1c0-0.1,0-0.1,0-0.2l5.3-2.7c0.2,0.2,0.5,0.3,0.8,0.3c0.6,0,1.1-0.5,1.1-1.1c0-0.6-0.5-1.1-1.1-1.1
		c-0.2,0-0.3,0-0.5,0.1L350,9.4z M348.3,9.5c0.1,0.1,0.3,0.2,0.5,0.3l0.1,4.2c-0.4,0.1-0.7,0.4-0.8,0.7l-6.8-1.2c0,0,0-0.1,0-0.1
		L348.3,9.5z M334.7,15.7C334.7,15.7,334.7,15.7,334.7,15.7l2.8-4.9c0.1,0,0.2,0,0.3,0c0.1,0,0.2,0,0.3,0l1.4,2.1
		c-0.1,0.1-0.1,0.2-0.2,0.3l-0.2,0l0.2,0.1c0,0.1-0.1,0.2-0.1,0.4c0,0,0,0.1,0,0.1L334.7,15.7z M339.9,18.2l-4.9-1.8
		c0,0,0-0.1,0-0.1c0,0,0-0.1,0-0.1l4.5-1.9c0.2,0.2,0.4,0.3,0.6,0.4l0.2,3.3C340.1,18.1,340,18.1,339.9,18.2z M340.2,12.6
		c-0.1,0-0.2,0-0.3,0l-1.4-2.1c0.1-0.1,0.2-0.3,0.2-0.5l9-0.8l-6.8,3.7C340.8,12.7,340.5,12.6,340.2,12.6z M348.1,19.6l-6.5-0.9
		c-0.1-0.4-0.4-0.7-0.8-0.8l-0.2-3.3c0.1,0,0.2-0.1,0.3-0.2L348.1,19.6C348.1,19.6,348.1,19.6,348.1,19.6z M348.5,19.2l-7.1-5
		l6.6,1.1c0.1,0.4,0.5,0.7,0.9,0.8L349,19C348.8,19,348.6,19.1,348.5,19.2z M349.9,19.3c-0.1-0.1-0.2-0.2-0.3-0.2l-0.1-3.1
		c0.2-0.1,0.3-0.2,0.4-0.4l5.2,0.9c0,0,0,0.1,0,0.1L349.9,19.3z M355.3,16l-5.1-0.9c0,0,0,0,0,0c0-0.4-0.3-0.8-0.7-1l-0.1-4.2
		c0.1,0,0.1,0,0.2-0.1L355.3,16C355.3,15.9,355.3,15.9,355.3,16z"/>
</g>
</svg>
