<?xml version="1.0" encoding="utf-8"?>
<!-- Generator: Adobe Illustrator 18.0.0, SVG Export Plug-In . SVG Version: 6.00 Build 0)  -->
<!DOCTYPE svg PUBLIC "-//W3C//DTD SVG 1.1//EN" "http://www.w3.org/Graphics/SVG/1.1/DTD/svg11.dtd">
<svg version="1.1" id="Layer_1" xmlns="http://www.w3.org/2000/svg" xmlns:xlink="http://www.w3.org/1999/xlink" x="0px" y="0px"
	 viewBox="0 0 498.8 438.3" style="enable-background:new 0 0 498.8 438.3;" xml:space="preserve">
<style type="text/css">
	.st0{fill:none;}
	.st1{display:none;fill:#010101;}
	.st2{font-family:'MinionPro-Regular';}
	.st3{font-size:235.4512;}
	.st4{letter-spacing:-17;}
	.st5{fill:#FFFFFF;}
</style>
<g>
	<rect x="25.8" y="128.4" class="st0" width="203.9" height="206"/>
	<text transform="matrix(1 0 0 1 55.1412 296.055)" class="st1 st2 st3 st4">T</text>
	<circle class="st5" cx="249.9" cy="218.5" r="13.6"/>
	<g>
		<polygon class="st5" points="248.8,0 0,46.7 0,101.7 19.5,101.7 19.5,63.3 248.8,20.3 479.2,63.6 479.2,101.7 498.8,101.7 
			498.8,46.9 		"/>
		<polygon class="st5" points="479.2,375 250,418 19.5,374.8 19.5,336.6 0,336.6 0,391.4 250,438.3 498.8,391.6 498.8,336.6 
			479.2,336.6 		"/>
	</g>
	<rect x="263.5" y="128.4" class="st0" width="203.9" height="206"/>
	<text transform="matrix(1 0 0 1 275.259 296.055)" class="st1 st2 st3 st4">H</text>
	<g>
		<path class="st5" d="M186.4,177c-2.6-11.3-4.7-17.2-7.5-21c-3.8-5.7-7.8-7.3-25.4-7.3h-16.7v115.8c0,18.6,1.9,21,24.3,22.4v6.6
			H93.4v-6.6c21.4-1.4,23.3-3.8,23.3-22.4V148.7h-14.6c-19.5,0-24.3,1.9-27.3,7.3c-2.8,4-4.7,10.6-7.5,21h-6.8
			c1.2-14.1,2.4-29.4,2.8-42.4H68c3.3,5.4,6.4,5.9,13,5.9h93c6.4,0,8.2-1.4,12-5.9h4.9c0,10.8,1.2,28,2.4,41.7L186.4,177z"/>
	</g>
	<g>
		<path class="st5" d="M445.6,147.1c-19.3,1.6-21.2,2.8-21.2,22.4v95.1c0,19.8,1.9,21,21,22.4v6.6h-63.1v-6.6
			c20-1.4,22.1-2.6,22.1-22.4v-47.1h-80.3v47.1c0,19.5,1.9,21,21.2,22.4v6.6h-61.9v-6.6c18.8-1.4,20.7-2.6,20.7-22.4v-95.1
			c0-19.8-1.9-20.7-21.2-22.4v-6.6h61v6.6c-17.9,1.6-19.8,2.8-19.8,22.4v38.1h80.3v-38.1c0-19.5-1.9-20.7-20.3-22.4v-6.6h61.5V147.1
			z"/>
	</g>
</g>
</svg>
